<svg id="visual" viewBox="0 0 900 600" width="900" height="600" xmlns="http://www.w3.org/2000/svg" xmlns:xlink="http://www.w3.org/1999/xlink" version="1.1"><rect x="0" y="0" width="900" height="600" fill="#c9d9e6"></rect><path d="M0 366L21.5 363.3C43 360.7 86 355.3 128.8 361.7C171.7 368 214.3 386 257.2 401.2C300 416.3 343 428.7 385.8 425.3C428.7 422 471.3 403 514.2 399.8C557 396.7 600 409.3 642.8 415.7C685.7 422 728.3 422 771.2 420.7C814 419.3 857 416.7 878.5 415.3L900 414L900 601L878.5 601C857 601 814 601 771.2 601C728.3 601 685.7 601 642.8 601C600 601 557 601 514.2 601C471.3 601 428.7 601 385.8 601C343 601 300 601 257.2 601C214.3 601 171.7 601 128.8 601C86 601 43 601 21.5 601L0 601Z" fill="#dec298"></path><path d="M0 477L21.5 468.5C43 460 86 443 128.8 431.3C171.7 419.7 214.3 413.3 257.2 408.7C300 404 343 401 385.8 410.7C428.7 420.3 471.3 442.7 514.2 443.7C557 444.7 600 424.3 642.8 421.3C685.7 418.3 728.3 432.7 771.2 436C814 439.3 857 431.7 878.5 427.8L900 424L900 601L878.5 601C857 601 814 601 771.2 601C728.3 601 685.7 601 642.8 601C600 601 557 601 514.2 601C471.3 601 428.7 601 385.8 601C343 601 300 601 257.2 601C214.3 601 171.7 601 128.8 601C86 601 43 601 21.5 601L0 601Z" fill="#dab884"></path><path d="M0 503L21.5 504.2C43 505.3 86 507.7 128.8 499.3C171.7 491 214.3 472 257.2 462.2C300 452.3 343 451.7 385.8 452.5C428.7 453.3 471.3 455.7 514.2 461.7C557 467.7 600 477.3 642.8 483C685.7 488.7 728.3 490.3 771.2 488C814 485.7 857 479.3 878.5 476.2L900 473L900 601L878.5 601C857 601 814 601 771.2 601C728.3 601 685.7 601 642.8 601C600 601 557 601 514.2 601C471.3 601 428.7 601 385.8 601C343 601 300 601 257.2 601C214.3 601 171.7 601 128.8 601C86 601 43 601 21.5 601L0 601Z" fill="#d5ad71"></path><path d="M0 534L21.5 535C43 536 86 538 128.8 532.8C171.7 527.7 214.3 515.3 257.2 508.7C300 502 343 501 385.8 498.7C428.7 496.3 471.3 492.7 514.2 495.3C557 498 600 507 642.8 513.2C685.7 519.3 728.3 522.7 771.2 526C814 529.3 857 532.7 878.5 534.3L900 536L900 601L878.5 601C857 601 814 601 771.2 601C728.3 601 685.7 601 642.8 601C600 601 557 601 514.2 601C471.3 601 428.7 601 385.8 601C343 601 300 601 257.2 601C214.3 601 171.7 601 128.8 601C86 601 43 601 21.5 601L0 601Z" fill="#d1a35e"></path><path d="M0 565L21.5 563.5C43 562 86 559 128.8 554.8C171.7 550.7 214.3 545.3 257.2 541.5C300 537.7 343 535.3 385.8 537C428.7 538.7 471.3 544.3 514.2 547C557 549.7 600 549.3 642.8 552.2C685.7 555 728.3 561 771.2 560.2C814 559.3 857 551.7 878.5 547.8L900 544L900 601L878.5 601C857 601 814 601 771.2 601C728.3 601 685.7 601 642.8 601C600 601 557 601 514.2 601C471.3 601 428.7 601 385.8 601C343 601 300 601 257.2 601C214.3 601 171.7 601 128.8 601C86 601 43 601 21.5 601L0 601Z" fill="#cc984a"></path></svg>