<svg id="visual" viewBox="0 0 1440 1240" width="1440" height="1240" xmlns="http://www.w3.org/2000/svg" xmlns:xlink="http://www.w3.org/1999/xlink" version="1.1"><rect x="0" y="0" width="1440" height="1240" fill="#C9D9E6"></rect><defs><linearGradient id="grad1_0" x1="13.9%" y1="100%" x2="100%" y2="0%"><stop offset="26.774193548387096%" stop-color="#c9d9e6" stop-opacity="1"></stop><stop offset="73.2258064516129%" stop-color="#c9d9e6" stop-opacity="1"></stop></linearGradient></defs><defs><linearGradient id="grad2_0" x1="0%" y1="100%" x2="86.1%" y2="0%"><stop offset="26.774193548387096%" stop-color="#c9d9e6" stop-opacity="1"></stop><stop offset="73.2258064516129%" stop-color="#c9d9e6" stop-opacity="1"></stop></linearGradient></defs><g transform="translate(1440, 1240)"><path d="M-760.1 0C-749.5 -79.8 -738.9 -159.6 -711.4 -231.1C-683.8 -302.7 -639.3 -365.9 -595.4 -432.6C-551.5 -499.3 -508.3 -569.3 -446.8 -615C-385.3 -660.6 -305.6 -681.8 -228.1 -701.9C-150.5 -722 -75.3 -741.1 0 -760.1L0 0Z" fill="#CC984A"></path></g><g transform="translate(0, 0)"><path d="M760.1 0C752.9 79.5 745.7 159 722.9 234.9C700.1 310.8 661.7 383.2 612.4 445C563.2 506.7 503.1 557.8 439.1 604.3C375.1 650.9 307.1 692.8 233.3 718C159.5 743.3 79.7 751.7 0 760.1L0 0Z" fill="#CC984A"></path></g></svg>