<svg id="visual" viewBox="0 0 900 600" width="900" height="600" xmlns="http://www.w3.org/2000/svg" xmlns:xlink="http://www.w3.org/1999/xlink" version="1.1"><rect x="0" y="0" width="900" height="600" fill="#c9d9e6"></rect><defs><linearGradient id="grad1_0" x1="33.3%" y1="0%" x2="100%" y2="100%"><stop offset="20%" stop-color="#c9d9e6" stop-opacity="1"></stop><stop offset="80%" stop-color="#c9d9e6" stop-opacity="1"></stop></linearGradient></defs><defs><linearGradient id="grad2_0" x1="0%" y1="0%" x2="66.7%" y2="100%"><stop offset="20%" stop-color="#c9d9e6" stop-opacity="1"></stop><stop offset="80%" stop-color="#c9d9e6" stop-opacity="1"></stop></linearGradient></defs><g transform="translate(900, 0)"><path d="M0 486.7C-63.5 470 -127 453.2 -174.1 420.4C-221.2 387.6 -251.9 338.8 -300.5 300.5C-349.1 262.3 -415.7 234.6 -449.7 186.3C-483.7 137.9 -485.2 69 -486.7 0L0 0Z" fill="#cc984a"></path></g><g transform="translate(0, 600)"><path d="M0 -486.7C51.6 -452.3 103.2 -417.9 165.7 -400C228.2 -382.1 301.7 -380.8 344.2 -344.2C386.6 -307.6 398.1 -235.8 416.7 -172.6C435.3 -109.4 461 -54.7 486.7 0L0 0Z" fill="#cc984a"></path></g></svg>