<svg role="img" viewBox="0 0 50 50" xmlns="http://www.w3.org/2000/svg" id="Springsecurity--Streamline-Simple-Icons" height="50" width="50">
  <desc>
    Springsecurity Streamline Icon: https://streamlinehq.com
  </desc>
  <title>Spring Security</title>
  <path d="M42.895833333333336 4.304166666666666 24.98541666666667 0 7.104166666666668 4.304166666666666v13.775h9.493750000000002a7.925 7.925 0 0 0 0 1.9875H7.104166666666668v6.470833333333333C7.104166666666668 41.38958333333334 24.9875 50 24.9875 50s17.87916666666667 -8.610416666666667 17.87916666666667 -23.454166666666666V20.072916666666668h-9.46875a7.533333333333334 7.533333333333334 0 0 0 0 -1.9875h9.495833333333334zM25 25.545833333333338h-0.0125a6.477083333333334 6.477083333333334 0 1 1 0.0125 0zm-0.0125 -9.539583333333333a1.6750000000000003 1.6750000000000003 0 0 0 -0.7708333333333334 3.166666666666667v0.43333333333333335l0.49583333333333335 0.49375v0.33125000000000004l0.33125000000000004 0.33125000000000004v0.33125000000000004l-0.29166666666666674 0.29166666666666674 0.3125 0.5125000000000001v0.33125000000000004l-0.33333333333333337 0.39375000000000004 0.46458333333333335 0.4625 0.5125000000000001 -0.5125000000000001V19.20416666666667a1.6750000000000003 1.6750000000000003 0 0 0 -0.7208333333333333 -3.1979166666666665zm0 1.7416666666666667a0.6229166666666667 0.6229166666666667 0 1 1 0.6208333333333333 -0.6229166666666667 0.6229166666666667 0.6229166666666667 0 0 1 -0.6208333333333333 0.625z" fill="#000000" stroke-width="2.0833"></path>
</svg>